<?xml version="1.0" encoding="UTF-8" standalone="no"?><!-- Generator: Gravit.io --><svg xmlns="http://www.w3.org/2000/svg" xmlns:xlink="http://www.w3.org/1999/xlink" style="isolation:isolate" viewBox="0 0 374 374" width="374pt" height="374pt"><defs><clipPath id="_clipPath_mvIMR2vtvKNPKAoWxvR5Zo4GNFLJuoFh"><rect width="374" height="374"/></clipPath></defs><g clip-path="url(#_clipPath_mvIMR2vtvKNPKAoWxvR5Zo4GNFLJuoFh)"><g><path d=" M 252 -0.432 L 252 51.212 L 122 51.212 L 122 -0.432 L 252 -0.432 L 252 -0.432 L 252 -0.432 L 252 -0.432 L 252 -0.432 Z  M 252 143.815 L 200.356 143.815 L 200.356 70.801 L 252 70.801 L 252 143.815 L 252 143.815 L 252 143.815 L 252 143.815 Z  M 173.644 180.322 L 122 180.322 L 122 107.308 L 173.644 107.308 L 173.644 180.322 L 173.644 180.322 L 173.644 180.322 Z  M 252 199.911 L 252 251.555 L 122 251.555 L 122 199.911 L 252 199.911 L 252 199.911 Z  M -23 -23 L 397 -23 L 397 397 L -23 397 L -23 -23 L -23 -23 L -23 -23 L -23 -23 L -23 -23 Z  M 252 271.144 L 252 374.432 L 122 374.432 L 122 271.144 L 252 271.144 Z " fill-rule="evenodd" fill="rgb(255,255,255)"/><rect x="177.205" y="296.966" width="19.589" height="51.644" transform="matrix(0,1,-1,0,509.788,135.788)" fill="rgb(255,255,255)"/></g></g></svg>