<?xml version="1.0" encoding="UTF-8" standalone="no"?><!-- Generator: Gravit.io --><svg xmlns="http://www.w3.org/2000/svg" xmlns:xlink="http://www.w3.org/1999/xlink" style="isolation:isolate" viewBox="0 0 130 374" width="130pt" height="374pt"><defs><clipPath id="_clipPath_WFM470A0Z5BzIgQjM7I7VWn1rraHZKNp"><rect width="130" height="374"/></clipPath></defs><g clip-path="url(#_clipPath_WFM470A0Z5BzIgQjM7I7VWn1rraHZKNp)"><g><g><rect x="39.178" y="-40.041" width="51.644" height="130" transform="matrix(0,1,-1,0,89.959,-40.041)" fill="rgb(8,8,8)"/><rect x="39.178" y="160.301" width="51.644" height="130" transform="matrix(0,1,-1,0,290.301,160.301)" fill="rgb(8,8,8)"/><rect x="78.356" y="70.37" width="51.644" height="73.014" transform="matrix(-1,0,0,-1,208.356,213.753)" fill="rgb(8,8,8)"/><rect x="0" y="106.877" width="51.644" height="73.014" transform="matrix(-1,0,0,-1,51.644,286.767)" fill="rgb(8,8,8)"/><path d=" M 130 270.712 L 130 374 L 0 374 L 0 270.712 L 130 270.712 Z  M 90.822 312.562 L 90.822 332.151 L 39.178 332.151 L 39.178 312.562 L 90.822 312.562 Z " fill-rule="evenodd" fill="rgb(8,8,8)"/></g></g></g></svg>