<?xml version="1.0" encoding="UTF-8" standalone="no"?><!-- Generator: Gravit.io --><svg xmlns="http://www.w3.org/2000/svg" xmlns:xlink="http://www.w3.org/1999/xlink" style="isolation:isolate" viewBox="0 0 374 374" width="374pt" height="374pt"><defs><clipPath id="_clipPath_OYU6TocJnHb93cPmj6cuIn7IJ4vfQmhc"><rect width="374" height="374"/></clipPath></defs><g clip-path="url(#_clipPath_OYU6TocJnHb93cPmj6cuIn7IJ4vfQmhc)"><g><path d=" M 12.064 126.333 L 60.265 126.333 L 60.265 247.667 L 12.064 247.667 L 12.064 126.333 L 12.064 126.333 L 12.064 126.333 L 12.064 126.333 L 12.064 126.333 Z  M 146.694 126.333 L 146.694 174.534 L 78.548 174.534 L 78.548 126.333 L 146.694 126.333 L 146.694 126.333 L 146.694 126.333 L 146.694 126.333 Z  M 180.767 199.466 L 180.767 247.667 L 112.621 247.667 L 112.621 199.466 L 180.767 199.466 L 180.767 199.466 L 180.767 199.466 Z  M 199.05 126.333 L 247.251 126.333 L 247.251 247.667 L 199.05 247.667 L 199.05 126.333 L 199.05 126.333 Z  M -9 383 L -9 -9 L 383 -9 L 383 383 L -9 383 L -9 383 L -9 383 L -9 383 L -9 383 Z  M 265.534 126.333 L 361.936 126.333 L 361.936 247.667 L 265.534 247.667 L 265.534 126.333 Z " fill-rule="evenodd" fill="rgb(255,255,255)"/><rect x="304.594" y="162.9" width="18.283" height="48.201" transform="matrix(1,0,0,1,0,0)" fill="rgb(255,255,255)"/></g></g></svg>