<?xml version="1.0" encoding="UTF-8" standalone="no"?><!-- Generator: Gravit.io --><svg xmlns="http://www.w3.org/2000/svg" xmlns:xlink="http://www.w3.org/1999/xlink" style="isolation:isolate" viewBox="0 0 154 394" width="154pt" height="394pt"><defs><clipPath id="_clipPath_sUQZEispVCf3WI2gHg0dgYshoqQntgoD"><rect width="154" height="394"/></clipPath></defs><g clip-path="url(#_clipPath_sUQZEispVCf3WI2gHg0dgYshoqQntgoD)"><g><g><rect x="50.178" y="-29.041" width="51.644" height="130" transform="matrix(0,1,-1,0,111.959,-40.041)" fill="rgb(8,8,8)"/><rect x="50.178" y="171.301" width="51.644" height="130" transform="matrix(0,1,-1,0,312.301,160.301)" fill="rgb(8,8,8)"/><rect x="24.356" y="268.356" width="103.288" height="130" transform="matrix(0,1,-1,0,409.356,257.356)" fill="rgb(8,8,8)"/><rect x="89.356" y="81.37" width="51.644" height="73.014" transform="matrix(-1,0,0,-1,230.356,235.753)" fill="rgb(8,8,8)"/><rect x="11" y="117.877" width="51.644" height="73.014" transform="matrix(-1,0,0,-1,73.644,308.767)" fill="rgb(8,8,8)"/><rect x="66.205" y="307.534" width="19.589" height="51.644" transform="matrix(0,1,-1,0,409.356,257.356)" fill="rgb(255,255,255)"/></g></g></g></svg>